<svg width="64" height="64" viewBox="0 0 64 64" fill="none" xmlns="http://www.w3.org/2000/svg">
<circle cx="32" cy="32" r="32" fill="#EFF2F7"/>
<path d="M27.6667 30.8334L27.6667 37.3334" stroke="#33A3AA" stroke-width="1.5" stroke-linecap="round" stroke-linejoin="round"/>
<path d="M32 33V37.3333" stroke="#33A3AA" stroke-width="1.5" stroke-linecap="round" stroke-linejoin="round"/>
<path d="M36.3334 28.6666V37.3333" stroke="#33A3AA" stroke-width="1.5" stroke-linecap="round" stroke-linejoin="round"/>
<rect x="22.25" y="24.3334" width="19.5" height="17.3333" rx="2" stroke="#33A3AA" stroke-width="1.5"/>
<path d="M38.0239 23.025C37.3683 23.6818 37 24.572 37 25.5C37 26.428 37.3683 27.3182 38.0239 27.975C38.7089 28.66 39.6039 29 40.4989 29C41.3939 29 42.2889 28.66 42.9739 27.975C44.7139 26.235 44.9989 21 44.9989 21C44.9989 21 39.7639 21.285 38.0239 23.025Z" fill="#EFF2F7"/>
<path d="M38.768 23.519C38.2762 24.0117 38 24.6794 38 25.3756C38 26.0717 38.2762 26.7394 38.768 27.2322C39.2819 27.746 39.9532 28.001 40.6246 28.001C41.296 28.001 41.9673 27.746 42.4812 27.2322C43.7864 25.9269 44.0002 22 44.0002 22C44.0002 22 40.0733 22.2138 38.768 23.519ZM41.9523 26.7033C41.596 27.0559 41.1272 27.2509 40.6246 27.2509C40.2908 27.2509 39.9757 27.1571 39.6944 26.9959C40.0395 25.9157 40.6771 24.9668 41.5248 24.2504C40.5383 24.7605 39.7094 25.5481 39.1356 26.5008C38.5805 25.7657 38.6293 24.7192 39.3006 24.0479C39.9532 23.3952 41.7648 22.9939 43.1751 22.8251C43.0063 24.2354 42.605 26.047 41.9523 26.7033Z" fill="#33A3AA"/>
</svg>
