<svg width="64" height="64" viewBox="0 0 64 64" fill="none" xmlns="http://www.w3.org/2000/svg">
<circle cx="31.9999" cy="32" r="32" fill="#EFF2F7" fill-opacity="0.79"/>
<path d="M39.9999 34H41.9999V36H39.9999C38.6199 36 37.2599 35.65 35.9999 35C33.4999 36.3 30.4999 36.3 27.9999 35C26.7399 35.65 25.3699 36 23.9999 36H21.9999V34H23.9999C25.3899 34 26.7799 33.53 27.9999 32.67C30.4399 34.38 33.5599 34.38 35.9999 32.67C37.2199 33.53 38.6099 34 39.9999 34ZM39.9999 40H41.9999V42H39.9999C38.6199 42 37.2599 41.65 35.9999 41C33.4999 42.3 30.4999 42.3 27.9999 41C26.7399 41.65 25.3699 42 23.9999 42H21.9999V40H23.9999C25.3899 40 26.7799 39.53 27.9999 38.67C30.4399 40.38 33.5599 40.38 35.9999 38.67C37.2199 39.53 38.6099 40 39.9999 40ZM26.9999 22L22.9999 26H25.9999V31H27.9999V26H30.9999M36.9999 22L32.9999 26H35.9999V31H37.9999V26H40.9999" fill="#33A3AA"/>
</svg>
