<svg width="64" height="64" viewBox="0 0 64 64" fill="none" xmlns="http://www.w3.org/2000/svg">
<circle cx="32.0001" cy="32" r="32" fill="#EFF2F7"/>
<path fill-rule="evenodd" clip-rule="evenodd" d="M32.5 25.6249C29.2293 25.6249 26.4163 27.5774 25.1599 30.3772C25.0394 30.6456 24.9542 30.8354 24.8885 30.9735C24.8234 31.1105 24.7963 31.1555 24.7929 31.1611C24.7925 31.1617 24.7924 31.1619 24.7925 31.1617C24.6919 31.3026 24.6402 31.3434 24.6121 31.3616C24.584 31.3798 24.5256 31.4102 24.3559 31.4444C24.3067 31.4543 24.2019 31.4583 23.7502 31.4583C20.9197 31.4583 18.6252 33.7528 18.6252 36.5833C18.6252 39.4138 20.9197 41.7083 23.7502 41.7083H34.839L35.4819 40.2083H23.7502C21.7482 40.2083 20.1252 38.5853 20.1252 36.5833C20.1252 34.5813 21.7482 32.9583 23.7502 32.9583L23.8292 32.9583C24.1575 32.9586 24.4334 32.9588 24.6517 32.9149C24.9167 32.8616 25.1789 32.7815 25.4272 32.6208C25.6755 32.4601 25.8559 32.2537 26.0131 32.0337C26.0987 31.9139 26.1747 31.7617 26.2433 31.6175C26.3168 31.4627 26.4088 31.2578 26.5244 31.0003L26.5244 31.0002L26.5284 30.9913C27.5518 28.7108 29.8415 27.1249 32.5 27.1249C35.1584 27.1249 37.448 28.7106 38.4715 30.991L38.4756 31.0002C38.5912 31.2578 38.6832 31.4628 38.7568 31.6176C38.8255 31.762 38.9016 31.9142 38.9873 32.0341C39.1444 32.2539 39.3247 32.4602 39.5729 32.6208C39.821 32.7814 40.0831 32.8615 40.348 32.9149C40.5664 32.9588 40.8426 32.9586 41.1712 32.9583L41.2502 32.9583C43.2522 32.9583 44.8752 34.5813 44.8752 36.5833C44.8752 38.5853 43.2522 40.2083 41.2502 40.2083H41.1855L41.8152 41.6775C44.3798 41.3963 46.3752 39.2228 46.3752 36.5833C46.3752 33.7528 44.0806 31.4583 41.2502 31.4583C40.7981 31.4583 40.6933 31.4543 40.644 31.4444C40.4744 31.4102 40.416 31.3798 40.388 31.3616C40.3599 31.3434 40.3082 31.3026 40.2076 31.1619C40.2077 31.162 40.2076 31.1618 40.2072 31.1613L40.2072 31.1613C40.2038 31.1555 40.1767 31.1105 40.1115 30.9735C40.0458 30.8353 39.9605 30.6454 39.84 30.3768C38.5834 27.5772 35.7705 25.6249 32.5 25.6249Z" fill="#33A3AA"/>
<path d="M37.2189 44.0416V43.3953L38.7291 41.9971C38.8575 41.8728 38.9652 41.7609 39.0522 41.6615C39.1406 41.562 39.2076 41.4647 39.2531 41.3694C39.2987 41.2727 39.3215 41.1685 39.3215 41.0566C39.3215 40.9323 39.2932 40.8253 39.2366 40.7355C39.1799 40.6444 39.1026 40.5746 39.0046 40.5263C38.9065 40.4766 38.7953 40.4517 38.671 40.4517C38.5412 40.4517 38.428 40.478 38.3313 40.5304C38.2347 40.5829 38.1601 40.6582 38.1076 40.7562C38.0551 40.8543 38.0289 40.971 38.0289 41.1063H37.1775C37.1775 40.8287 37.2403 40.5878 37.366 40.3834C37.4917 40.179 37.6678 40.0209 37.8942 39.909C38.1207 39.7971 38.3817 39.7412 38.6773 39.7412C38.9811 39.7412 39.2455 39.7951 39.4706 39.9028C39.6971 40.0091 39.8732 40.1569 39.9989 40.3461C40.1245 40.5353 40.1874 40.7521 40.1874 40.9965C40.1874 41.1567 40.1556 41.3148 40.0921 41.4709C40.0299 41.627 39.9188 41.8003 39.7586 41.9908C39.5984 42.18 39.3726 42.4072 39.0812 42.6724L38.4618 43.2793V43.3083H40.2433V44.0416H37.2189Z" fill="#33A3AA"/>
<path d="M31.9344 33.6914H30.8456C30.8257 33.5505 30.7851 33.4254 30.7238 33.3161C30.6625 33.205 30.5837 33.1106 30.4876 33.0327C30.3915 32.9548 30.2805 32.8951 30.1545 32.8537C30.0302 32.8123 29.8952 32.7915 29.7494 32.7915C29.4859 32.7915 29.2563 32.857 29.0608 32.9879C28.8652 33.1172 28.7136 33.3061 28.6059 33.5547C28.4982 33.8016 28.4443 34.1016 28.4443 34.4545C28.4443 34.8175 28.4982 35.1224 28.6059 35.3693C28.7153 35.6162 28.8677 35.8027 29.0633 35.9286C29.2588 36.0546 29.485 36.1175 29.7419 36.1175C29.8861 36.1175 30.0195 36.0985 30.1421 36.0604C30.2664 36.0223 30.3766 35.9667 30.4727 35.8938C30.5688 35.8192 30.6484 35.7289 30.7114 35.6229C30.776 35.5168 30.8207 35.3958 30.8456 35.2599L31.9344 35.2649C31.9062 35.4986 31.8358 35.724 31.7231 35.9411C31.612 36.1565 31.4621 36.3496 31.2731 36.5202C31.0859 36.6893 30.8622 36.8235 30.602 36.9229C30.3435 37.0207 30.051 37.0696 29.7245 37.0696C29.2704 37.0696 28.8644 36.9669 28.5065 36.7614C28.1502 36.5559 27.8684 36.2584 27.6613 35.869C27.4558 35.4795 27.353 35.008 27.353 34.4545C27.353 33.8994 27.4574 33.4271 27.6663 33.0376C27.8751 32.6482 28.1584 32.3516 28.5164 32.1477C28.8744 31.9422 29.277 31.8395 29.7245 31.8395C30.0195 31.8395 30.2929 31.8809 30.5448 31.9638C30.7984 32.0466 31.0229 32.1676 31.2185 32.3267C31.414 32.4841 31.5731 32.6772 31.6957 32.9059C31.82 33.1346 31.8996 33.3964 31.9344 33.6914ZM37.3845 34.4545C37.3845 35.0097 37.2792 35.482 37.0688 35.8714C36.86 36.2609 36.5749 36.5584 36.2137 36.7638C35.8541 36.9677 35.4497 37.0696 35.0006 37.0696C34.5482 37.0696 34.1422 36.9669 33.7826 36.7614C33.4229 36.5559 33.1387 36.2584 32.9299 35.869C32.7211 35.4795 32.6167 35.008 32.6167 34.4545C32.6167 33.8994 32.7211 33.4271 32.9299 33.0376C33.1387 32.6482 33.4229 32.3516 33.7826 32.1477C34.1422 31.9422 34.5482 31.8395 35.0006 31.8395C35.4497 31.8395 35.8541 31.9422 36.2137 32.1477C36.5749 32.3516 36.86 32.6482 37.0688 33.0376C37.2792 33.4271 37.3845 33.8994 37.3845 34.4545ZM36.2932 34.4545C36.2932 34.0949 36.2393 33.7917 36.1316 33.5447C36.0256 33.2978 35.8756 33.1106 35.6817 32.983C35.4878 32.8554 35.2608 32.7915 35.0006 32.7915C34.7404 32.7915 34.5134 32.8554 34.3195 32.983C34.1256 33.1106 33.9748 33.2978 33.8671 33.5447C33.761 33.7917 33.708 34.0949 33.708 34.4545C33.708 34.8142 33.761 35.1174 33.8671 35.3643C33.9748 35.6113 34.1256 35.7985 34.3195 35.9261C34.5134 36.0537 34.7404 36.1175 35.0006 36.1175C35.2608 36.1175 35.4878 36.0537 35.6817 35.9261C35.8756 35.7985 36.0256 35.6113 36.1316 35.3643C36.2393 35.1174 36.2932 34.8142 36.2932 34.4545Z" fill="#33A3AA"/>
</svg>
