<svg width="64" height="64" viewBox="0 0 64 64" fill="none" xmlns="http://www.w3.org/2000/svg">
<circle cx="32.0001" cy="32" r="32" fill="#EFF2F7"/>
<path fill-rule="evenodd" clip-rule="evenodd" d="M32.5 18.6249C29.2293 18.6249 26.4163 20.5774 25.1599 23.3772C25.0394 23.6456 24.9542 23.8354 24.8885 23.9735C24.8234 24.1105 24.7963 24.1555 24.7929 24.1611L24.7929 24.1612C24.7925 24.1617 24.7924 24.1619 24.7925 24.1617C24.6919 24.3026 24.6402 24.3434 24.6121 24.3616C24.584 24.3798 24.5256 24.4102 24.3559 24.4444C24.3067 24.4543 24.2019 24.4583 23.7502 24.4583C20.9197 24.4583 18.6252 26.7528 18.6252 29.5833C18.6252 32.4138 20.9197 34.7083 23.7502 34.7083H34.839L35.4819 33.2083H23.7502C21.7482 33.2083 20.1252 31.5853 20.1252 29.5833C20.1252 27.5813 21.7482 25.9583 23.7502 25.9583L23.8292 25.9583C24.1575 25.9586 24.4334 25.9588 24.6517 25.9149C24.9167 25.8616 25.1789 25.7815 25.4272 25.6208C25.6755 25.4601 25.8559 25.2537 26.0131 25.0337C26.0987 24.9139 26.1747 24.7617 26.2433 24.6175C26.3168 24.4627 26.4088 24.2578 26.5244 24.0003L26.5244 24.0002L26.5284 23.9913C27.5518 21.7108 29.8415 20.1249 32.5 20.1249C35.1584 20.1249 37.448 21.7106 38.4715 23.991L38.4756 24.0002C38.5912 24.2578 38.6832 24.4628 38.7568 24.6176C38.8255 24.762 38.9016 24.9142 38.9873 25.0341C39.1444 25.2539 39.3247 25.4602 39.5729 25.6208C39.821 25.7814 40.0831 25.8615 40.348 25.9149C40.5664 25.9588 40.8426 25.9586 41.1712 25.9583L41.2502 25.9583C43.2522 25.9583 44.8752 27.5813 44.8752 29.5833C44.8752 31.5853 43.2522 33.2083 41.2502 33.2083H41.1855L41.8152 34.6775C44.3798 34.3963 46.3752 32.2228 46.3752 29.5833C46.3752 26.7528 44.0806 24.4583 41.2502 24.4583C40.7981 24.4583 40.6933 24.4543 40.644 24.4444C40.4744 24.4102 40.416 24.3798 40.388 24.3616C40.3599 24.3434 40.3082 24.3026 40.2076 24.1619C40.2077 24.162 40.2076 24.1618 40.2072 24.1613L40.2072 24.1613C40.2038 24.1555 40.1767 24.1105 40.1115 23.9735C40.0458 23.8353 39.9605 23.6454 39.84 23.3768C38.5834 20.5772 35.7705 18.6249 32.5 18.6249Z" fill="#33A3AA"/>
</svg>
