<svg width="64" height="64" viewBox="0 0 64 64" fill="none" xmlns="http://www.w3.org/2000/svg">
<circle cx="31.9999" cy="32" r="32" fill="#EFF2F7"/>
<path d="M40.6933 37.3294C41.0506 35.9959 41.0963 34.5982 40.827 33.2442C40.5577 31.8902 39.9805 30.6164 39.1401 29.5211C38.2997 28.4259 37.2186 27.5387 35.9805 26.9281C34.7424 26.3176 33.3804 26 31.9999 26C30.6194 26 29.2574 26.3176 28.0193 26.9281C26.7812 27.5387 25.7001 28.4259 24.8597 29.5211C24.0194 30.6164 23.4422 31.8902 23.1729 33.2442C22.9035 34.5982 22.9493 35.9959 23.3066 37.3294" stroke="#33A3AA" stroke-width="1.5" stroke-linecap="round"/>
<path d="M32.7659 35.5823C33.2533 36.2916 32.9105 37.3738 32.0002 37.9994C31.0898 38.625 29.9567 38.5571 29.4692 37.8477C28.9497 37.0917 27.1563 32.8409 26.0673 30.2114C25.8622 29.7162 26.4679 29.3 26.8566 29.669C28.9209 31.6283 32.2464 34.8263 32.7659 35.5823Z" stroke="#33A3AA" stroke-width="1.5"/>
<path d="M31.9999 26V28" stroke="#33A3AA" stroke-width="1.5" stroke-linecap="round"/>
<path d="M25.6357 28.6357L27.0499 30.05" stroke="#33A3AA" stroke-linecap="round"/>
<path d="M38.3642 28.6357L36.95 30.05" stroke="#33A3AA" stroke-width="1.5" stroke-linecap="round"/>
<path d="M40.6933 37.3291L38.7614 36.8115" stroke="#33A3AA" stroke-width="1.5" stroke-linecap="round"/>
<path d="M23.3066 37.3291L25.2384 36.8115" stroke="#33A3AA" stroke-width="1.5" stroke-linecap="round"/>
</svg>
