<svg width="64" height="64" viewBox="0 0 64 64" fill="none" xmlns="http://www.w3.org/2000/svg">
<circle cx="32" cy="32" r="32" fill="#EFF2F7"/>
<path d="M32 23.375C31.3039 23.375 30.6362 23.6516 30.1439 24.1438C29.6516 24.6361 29.375 25.3038 29.375 26V37.8403L29.0315 38.1222C28.2832 38.7346 27.7426 39.5633 27.4837 40.4949C27.2248 41.4265 27.2603 42.4154 27.5854 43.326C27.9105 44.2366 28.5092 45.0244 29.2996 45.5815C30.0899 46.1385 31.0331 46.4375 32 46.4375C32.967 46.4375 33.9102 46.1385 34.7005 45.5815C35.4909 45.0244 36.0896 44.2366 36.4147 43.326C36.7398 42.4154 36.7753 41.4265 36.5164 40.4949C36.2575 39.5633 35.7169 38.7346 34.9685 38.1222L34.625 37.8403V26C34.625 25.6553 34.5571 25.3139 34.4252 24.9955C34.2933 24.677 34.1 24.3876 33.8562 24.1438C33.6124 23.9001 33.3231 23.7067 33.0046 23.5748C32.6861 23.4429 32.3448 23.375 32 23.375ZM27.5 26C27.5 24.8065 27.9742 23.6619 28.8181 22.818C29.662 21.9741 30.8066 21.5 32 21.5C33.1935 21.5 34.3381 21.9741 35.182 22.818C36.0259 23.6619 36.5 24.8065 36.5 26V36.9733C37.4569 37.8747 38.121 39.0427 38.4062 40.326C38.6915 41.6093 38.5847 42.9487 38.0998 44.1706C37.6149 45.3925 36.7741 46.4406 35.6865 47.1791C34.599 47.9176 33.3147 48.3124 32 48.3124C30.6854 48.3124 29.4011 47.9176 28.3135 47.1791C27.226 46.4406 26.3852 45.3925 25.9003 44.1706C25.4154 42.9487 25.3086 41.6093 25.5939 40.326C25.8791 39.0427 26.5432 37.8747 27.5 36.9733V26ZM35 41.75C35 42.3028 34.8472 42.8448 34.5586 43.3163C34.2699 43.7877 33.8566 44.1702 33.3643 44.4216C32.872 44.673 32.3198 44.7835 31.7686 44.7408C31.2175 44.6982 30.6888 44.5041 30.241 44.18C29.7932 43.8558 29.4437 43.4143 29.231 42.9041C29.0183 42.3938 28.9507 41.8348 29.0357 41.2885C29.1207 40.7423 29.355 40.2302 29.7126 39.8087C30.0703 39.3872 30.5374 39.0727 31.0625 38.9V30.6875C31.0625 30.4389 31.1613 30.2004 31.3371 30.0246C31.5129 29.8488 31.7514 29.75 32 29.75C32.2487 29.75 32.4871 29.8488 32.663 30.0246C32.8388 30.2004 32.9375 30.4389 32.9375 30.6875V38.9C33.5375 39.0976 34.0598 39.4794 34.4301 39.9912C34.8004 40.5029 34.9999 41.1184 35 41.75Z" fill="#33A3AA"/>
</svg>
