<svg width="64" height="64" viewBox="0 0 64 64" fill="none" xmlns="http://www.w3.org/2000/svg">
<circle cx="32" cy="32" r="32" fill="#EFF2F7"/>
<path d="M31.5536 35.9047H30.4776C28.9305 35.9047 28.1569 35.9047 27.8642 35.4018C27.5716 34.8989 27.9537 34.2263 28.718 32.8811L31.1137 28.6647C31.4931 27.9969 31.6829 27.663 31.8712 27.7127C32.0595 27.7625 32.0595 28.1466 32.0595 28.9146V31.7559C32.0595 31.9944 32.0595 32.1137 32.1336 32.1878C32.2077 32.2619 32.327 32.2619 32.5655 32.2619H33.6415C35.1886 32.2619 35.9622 32.2619 36.2548 32.7648C36.5475 33.2677 36.1654 33.9403 35.4011 35.2854L33.0054 39.5019C32.6259 40.1697 32.4362 40.5036 32.2479 40.4538C32.0595 40.4041 32.0595 40.02 32.0595 39.2519V36.4107C32.0595 36.1722 32.0595 36.0529 31.9854 35.9788C31.9114 35.9047 31.7921 35.9047 31.5536 35.9047Z" fill="#33A3AA"/>
<circle cx="32" cy="34" r="10.5" stroke="#33A3AA" stroke-width="1.5"/>
</svg>
