<svg width="64" height="64" viewBox="0 0 64 64" fill="none" xmlns="http://www.w3.org/2000/svg">
<circle cx="32" cy="32" r="32" fill="#EFF2F7"/>
<path d="M38.3281 41.5625C38.3281 42.4949 37.9577 43.3891 37.2984 44.0484C36.6391 44.7077 35.7449 45.0781 34.8125 45.0781C33.3008 45.0781 31.8406 44.0961 31.3402 42.7437C31.2756 42.5688 31.2831 42.3753 31.3611 42.2058C31.4391 42.0364 31.5813 41.9049 31.7562 41.8402C31.9312 41.7756 32.1247 41.7831 32.2942 41.8611C32.4636 41.9391 32.5951 42.0813 32.6598 42.2563C32.9527 43.0496 33.8984 43.6719 34.8125 43.6719C35.3719 43.6719 35.9085 43.4496 36.3041 43.0541C36.6996 42.6585 36.9219 42.1219 36.9219 41.5625C36.9219 41.0031 36.6996 40.4665 36.3041 40.0709C35.9085 39.6754 35.3719 39.4531 34.8125 39.4531H21.6875C21.501 39.4531 21.3222 39.379 21.1903 39.2472C21.0585 39.1153 20.9844 38.9365 20.9844 38.75C20.9844 38.5635 21.0585 38.3847 21.1903 38.2528C21.3222 38.121 21.501 38.0469 21.6875 38.0469H34.8125C35.7449 38.0469 36.6391 38.4173 37.2984 39.0766C37.9577 39.7359 38.3281 40.6301 38.3281 41.5625ZM34.5781 28.4375C34.5781 27.5051 34.2077 26.6109 33.5484 25.9516C32.8891 25.2923 31.9949 24.9219 31.0625 24.9219C29.5508 24.9219 28.0906 25.9039 27.5902 27.2562C27.5256 27.4312 27.5331 27.6247 27.6111 27.7942C27.6891 27.9636 27.8313 28.0951 28.0062 28.1598C28.1812 28.2244 28.3747 28.2169 28.5442 28.1389C28.7136 28.0609 28.8451 27.9187 28.9098 27.7438C29.2027 26.9504 30.1484 26.3281 31.0625 26.3281C31.6219 26.3281 32.1585 26.5504 32.5541 26.9459C32.9496 27.3415 33.1719 27.8781 33.1719 28.4375C33.1719 28.9969 32.9496 29.5335 32.5541 29.9291C32.1585 30.3246 31.6219 30.5469 31.0625 30.5469H19.8125C19.626 30.5469 19.4472 30.621 19.3153 30.7528C19.1835 30.8847 19.1094 31.0635 19.1094 31.25C19.1094 31.4365 19.1835 31.6153 19.3153 31.7472C19.4472 31.879 19.626 31.9531 19.8125 31.9531H31.0625C31.9949 31.9531 32.8891 31.5827 33.5484 30.9234C34.2077 30.2641 34.5781 29.3699 34.5781 28.4375ZM41.375 28.6719C39.8633 28.6719 38.4031 29.6539 37.9027 31.0062C37.8707 31.0929 37.8561 31.185 37.8597 31.2773C37.8633 31.3696 37.885 31.4603 37.9236 31.5442C37.9622 31.6281 38.017 31.7035 38.0848 31.7663C38.1526 31.829 38.2321 31.8778 38.3188 31.9098C38.4054 31.9418 38.4975 31.9564 38.5898 31.9528C38.6821 31.9492 38.7728 31.9275 38.8567 31.8889C38.9406 31.8503 39.016 31.7955 39.0788 31.7277C39.1415 31.6599 39.1903 31.5804 39.2223 31.4938C39.5152 30.7004 40.4609 30.0781 41.375 30.0781C41.9344 30.0781 42.471 30.3004 42.8666 30.6959C43.2621 31.0915 43.4844 31.6281 43.4844 32.1875C43.4844 32.7469 43.2621 33.2835 42.8666 33.6791C42.471 34.0746 41.9344 34.2969 41.375 34.2969H20.75C20.5635 34.2969 20.3847 34.371 20.2528 34.5028C20.121 34.6347 20.0469 34.8135 20.0469 35C20.0469 35.1865 20.121 35.3653 20.2528 35.4972C20.3847 35.629 20.5635 35.7031 20.75 35.7031H41.375C42.3074 35.7031 43.2016 35.3327 43.8609 34.6734C44.5202 34.0141 44.8906 33.1199 44.8906 32.1875C44.8906 31.2551 44.5202 30.3609 43.8609 29.7016C43.2016 29.0423 42.3074 28.6719 41.375 28.6719Z" fill="#33A3AA"/>
</svg>
