<svg width="64" height="64" viewBox="0 0 64 64" fill="none" xmlns="http://www.w3.org/2000/svg">
<circle cx="32.0001" cy="32" r="32" fill="#EBF8F9"/>
<path d="M29.1252 37.6913L25.2215 33.7876C25.0111 33.5772 24.7258 33.459 24.4284 33.459C24.1309 33.459 23.8456 33.5772 23.6352 33.7876C23.4249 33.9979 23.3067 34.2832 23.3067 34.5807C23.3067 34.728 23.3357 34.8738 23.3921 35.0099C23.4485 35.146 23.5311 35.2697 23.6352 35.3738L28.3377 40.0763C28.7765 40.5151 29.4852 40.5151 29.924 40.0763L41.8265 28.1738C42.0368 27.9635 42.155 27.6782 42.155 27.3807C42.155 27.0832 42.0368 26.7979 41.8265 26.5876C41.6161 26.3772 41.3308 26.259 41.0334 26.259C40.7359 26.259 40.4506 26.3772 40.2402 26.5876L29.1252 37.6913Z" fill="#539B5B"/>
</svg>
